<svg width="600" height="499" viewBox="0 0 600 499" fill="none" xmlns="http://www.w3.org/2000/svg">
<path d="M195.309 269.218C197.958 271.561 199.758 272.307 201.292 271.459C203.835 270.053 203.829 266.463 203.508 263.575L197.89 213.007C197.334 208.007 194.309 203.618 189.833 201.32L179.829 196.183C178.945 195.729 178.021 195.349 177.053 195.126C174.131 194.453 172.029 194.558 169.986 195.935C167.291 197.752 166.5 201.257 166.5 204.507V212.269C166.5 213.419 166.626 214.569 166.91 215.684C168.6 222.319 170.545 226.172 175.5 232C185.921 244.315 187.816 257.079 193.087 266.466C193.668 267.501 194.42 268.432 195.309 269.218Z" fill="#F5C4A0" stroke="black" stroke-width="2"/>
<path d="M189 247C193.028 253.053 195.32 254.248 199.5 250.5L198 223C190.5 210.5 177 200.5 174 202.5C171 204.5 169.5 208 170.5 213.5C175.038 222.732 176.908 227.241 184.5 234C187.496 237.27 188.425 239.817 189 247Z" stroke="black"/>
<path d="M420.5 272.5C417.445 280.275 413.963 282.381 404.5 282C397.082 282 391.357 275.474 392.323 268.119L396.085 239.467C396.665 235.052 399.175 231.124 402.938 228.743L419.412 218.321C420.795 217.446 422.311 216.801 423.903 216.425C429.331 215.143 434.634 214.011 444.081 212.092C446.005 211.701 448.016 211.618 449.889 212.21C455.106 213.858 456.617 217.037 454.313 225.706C453.821 227.559 452.876 229.263 451.662 230.746L444.5 239.5C432.969 251.2 427.75 258.445 420.5 272.5Z" fill="#F5C4A0" stroke="black" stroke-width="2"/>
<path d="M444 217.5C437 216.5 427 222.5 418.5 236L410.5 265L413 267.5C415.37 270.57 416.566 269.883 418.5 266.5C420.613 261.345 421.927 258.512 425.5 254C433.12 243.677 437.243 237.695 448 228.5C451.806 219.101 451 218.5 444 217.5Z" stroke="black"/>
<path d="M429 197.5C429 200 422.02 218.879 418.5 237L198 235.5V227.5C196.361 208.049 194.791 196.909 190.5 176.5C188.875 165.478 187.374 159.102 184 147.5C180.991 140.455 180.992 136.515 183 129.5C184.057 126.487 183.588 126.239 181.5 127.5L177 130.5C188.365 106.612 194.598 92.1044 205.5 64.5C209.883 57.9144 213.074 50.7926 219 37C235 31.5 260.5 25.5 285 24.5C291.233 19.2378 294.842 15.7515 301.5 8.5C309.583 4.13888 314.843 4.9877 325 10C325.468 7.19306 324.589 5.42218 321.5 2C331.33 2.69352 336.919 5.25355 347 13C348.603 11.2038 348.687 9.91502 348.5 7.5C353.018 10.2626 355.042 10.1659 358.5 9.5C365.885 17.7629 369.557 16.53 376 13C382.492 17.2796 384.08 20.4031 384 27C390.015 27.8058 393.412 26.6544 399.5 22.5C396.431 27.2435 395.235 29.4171 394.5 32C396.917 37.0523 401.407 37.828 410.5 38.5C412.071 53.2666 414.714 57.2186 423 55.5C423.207 71.3251 424.184 80.1921 427 96H436C433.951 101.604 433.457 105.021 433.5 111.5C440.296 125.614 441.507 133.501 439 147.5C433 164 429 195 429 197.5Z" fill="#784421"/>
<path d="M418.5 237L418.493 238L419.323 238.006L419.482 237.191L418.5 237ZM439 147.5L439.94 147.842L439.969 147.761L439.984 147.676L439 147.5ZM433.5 111.5L432.5 111.507L432.502 111.731L432.599 111.934L433.5 111.5ZM436 96L436.939 96.3433L437.43 95H436V96ZM427 96L426.015 96.1754L426.162 97H427V96ZM423 55.5L424 55.4869L423.984 54.2746L422.797 54.5208L423 55.5ZM410.5 38.5L411.494 38.3942L411.406 37.5642L410.574 37.5027L410.5 38.5ZM394.5 32L393.538 31.7262L393.435 32.0901L393.598 32.4315L394.5 32ZM399.5 22.5L400.34 23.0432L398.936 21.674L399.5 22.5ZM384 27L383 26.9879L382.989 27.8736L383.867 27.9911L384 27ZM376 13L376.55 12.1651L376.048 11.8337L375.52 12.123L376 13ZM358.5 9.5L359.246 8.83362L358.868 8.41081L358.311 8.51804L358.5 9.5ZM348.5 7.5L349.022 6.64687L347.352 5.62591L347.503 7.57708L348.5 7.5ZM347 13L346.391 13.7929L347.127 14.3591L347.746 13.6658L347 13ZM321.5 2L321.57 1.00248L319.095 0.827826L320.758 2.67005L321.5 2ZM325 10L324.557 10.8967L325.765 11.4927L325.986 10.1644L325 10ZM301.5 8.5L301.025 7.61993L300.877 7.69979L300.763 7.82369L301.5 8.5ZM285 24.5L285.041 25.4992L285.383 25.4852L285.645 25.2641L285 24.5ZM219 37L218.675 36.0543L218.256 36.1983L218.081 36.6053L219 37ZM205.5 64.5L204.668 63.9459L204.609 64.0341L204.57 64.1327L205.5 64.5ZM177 130.5L176.097 130.07L174.541 133.341L177.555 131.332L177 130.5ZM181.5 127.5L180.983 126.644L180.964 126.655L180.945 126.668L181.5 127.5ZM183 129.5L182.056 129.169L182.047 129.197L182.039 129.225L183 129.5ZM184 147.5L184.96 147.221L184.943 147.163L184.92 147.107L184 147.5ZM190.5 176.5L189.511 176.646L189.515 176.676L189.521 176.706L190.5 176.5ZM198 227.5H199V227.458L198.996 227.416L198 227.5ZM198 235.5H197V236.493L197.993 236.5L198 235.5ZM419.482 237.191C421.232 228.181 423.845 218.969 426.028 211.679C427.114 208.051 428.105 204.862 428.813 202.461C429.169 201.256 429.46 200.226 429.663 199.414C429.856 198.643 430 197.956 430 197.5H428C428 197.669 427.926 198.118 427.723 198.929C427.531 199.699 427.249 200.696 426.895 201.895C426.185 204.304 425.211 207.436 424.112 211.105C421.925 218.41 419.288 227.698 417.518 236.809L419.482 237.191ZM430 197.5C430 196.957 430.237 194.629 430.71 191.085C431.177 187.582 431.863 182.969 432.735 177.92C434.484 167.803 436.972 156.003 439.94 147.842L438.06 147.158C435.028 155.497 432.516 167.447 430.765 177.58C429.887 182.656 429.198 187.293 428.728 190.821C428.263 194.308 428 196.793 428 197.5H430ZM439.984 147.676C441.249 140.616 441.589 135.026 440.727 129.392C439.867 123.765 437.818 118.163 434.401 111.066L432.599 111.934C435.978 118.951 437.933 124.349 438.75 129.694C439.566 135.032 439.258 140.385 438.016 147.324L439.984 147.676ZM434.5 111.493C434.458 105.112 434.938 101.817 436.939 96.3433L435.061 95.6567C432.965 101.391 432.456 104.929 432.5 111.507L434.5 111.493ZM427.985 95.8246C425.177 80.0624 424.206 71.2502 424 55.4869L422 55.5131C422.208 71.4001 423.191 80.3217 426.015 96.1754L427.985 95.8246ZM422.797 54.5208C420.795 54.936 419.245 54.9829 418.015 54.6752C416.822 54.3767 415.861 53.728 415.042 52.5962C414.203 51.4351 413.506 49.7509 412.922 47.3876C412.339 45.0319 411.885 42.0679 411.494 38.3942L409.506 38.6058C409.9 42.3154 410.366 45.3828 410.98 47.8675C411.592 50.3446 412.368 52.3098 413.422 53.7677C414.496 55.2549 415.848 56.1948 417.53 56.6154C419.174 57.0268 421.062 56.9233 423.203 56.4792L422.797 54.5208ZM410.574 37.5027C406.005 37.165 402.745 36.8072 400.331 35.9502C398.003 35.1235 396.489 33.8409 395.402 31.5685L393.598 32.4315C394.928 35.2114 396.868 36.8427 399.662 37.8349C402.371 38.7968 405.902 39.1629 410.426 39.4973L410.574 37.5027ZM395.462 32.2738C396.152 29.85 397.27 27.7884 400.34 23.0432L398.66 21.9568C395.593 26.6986 394.319 28.9841 393.538 31.7262L395.462 32.2738ZM398.936 21.674C395.917 23.7344 393.648 24.9905 391.436 25.652C389.248 26.3064 387.046 26.399 384.133 26.0089L383.867 27.9911C386.97 28.4067 389.473 28.3266 392.009 27.5681C394.521 26.8168 396.995 25.42 400.064 23.326L398.936 21.674ZM385 27.0121C385.041 23.64 384.66 21.005 383.337 18.6425C382.022 16.2936 379.843 14.3357 376.55 12.1651L375.45 13.8349C378.649 15.944 380.51 17.6876 381.592 19.6196C382.666 21.5379 383.039 23.7631 383 26.9879L385 27.0121ZM375.52 12.123C372.263 13.907 370.001 14.9233 367.71 14.678C365.448 14.4359 362.899 12.9209 359.246 8.83362L357.754 10.1664C361.486 14.342 364.465 16.3421 367.497 16.6667C370.499 16.9881 373.294 15.623 376.48 13.877L375.52 12.123ZM358.311 8.51804C356.597 8.84805 355.373 9.00683 354.054 8.79799C352.733 8.58896 351.226 7.99491 349.022 6.64687L347.978 8.35313C350.292 9.76769 352.055 10.5066 353.741 10.7734C355.428 11.0404 356.945 10.8179 358.689 10.482L358.311 8.51804ZM347.503 7.57708C347.596 8.78344 347.607 9.57128 347.447 10.2549C347.297 10.9006 346.975 11.5263 346.254 12.3342L347.746 13.6658C348.628 12.6775 349.15 11.7607 349.395 10.7092C349.631 9.69563 349.59 8.63157 349.497 7.42292L347.503 7.57708ZM347.609 12.2071C342.548 8.31784 338.554 5.68252 334.556 3.93855C330.539 2.18677 326.567 1.355 321.57 1.00248L321.43 2.99752C326.263 3.33852 330 4.13353 333.756 5.77176C337.53 7.41779 341.371 9.93571 346.391 13.7929L347.609 12.2071ZM320.758 2.67005C322.294 4.37154 323.193 5.57154 323.671 6.63967C324.126 7.65339 324.221 8.59376 324.014 9.83563L325.986 10.1644C326.247 8.5993 326.137 7.25076 325.496 5.82177C324.88 4.44717 323.796 3.05064 322.242 1.32995L320.758 2.67005ZM325.443 9.10325C320.346 6.58824 316.349 5.04821 312.554 4.73829C308.711 4.42446 305.181 5.37772 301.025 7.61993L301.975 9.38007C305.902 7.26116 309.044 6.45827 312.391 6.73165C315.786 7.00893 319.497 8.39946 324.557 10.8967L325.443 9.10325ZM300.763 7.82369C294.129 15.0492 290.551 18.5052 284.355 23.7359L285.645 25.2641C291.915 19.9704 295.555 16.4537 302.237 9.17631L300.763 7.82369ZM284.959 23.5008C260.345 24.5055 234.749 30.529 218.675 36.0543L219.325 37.9457C235.251 32.471 260.655 26.4945 285.041 25.4992L284.959 23.5008ZM218.081 36.6053C212.148 50.4155 208.991 57.4497 204.668 63.9459L206.332 65.0541C210.775 58.3791 214.001 51.1697 219.919 37.3947L218.081 36.6053ZM204.57 64.1327C193.675 91.7196 187.45 106.206 176.097 130.07L177.903 130.93C189.279 107.018 195.521 92.4892 206.43 64.8673L204.57 64.1327ZM177.555 131.332L182.055 128.332L180.945 126.668L176.445 129.668L177.555 131.332ZM182.017 128.356C182.532 128.045 182.872 127.875 183.08 127.806C183.185 127.771 183.185 127.787 183.118 127.783C183.023 127.778 182.831 127.732 182.677 127.556C182.546 127.407 182.542 127.274 182.544 127.3C182.546 127.321 182.548 127.402 182.519 127.573C182.462 127.913 182.316 128.428 182.056 129.169L183.944 129.831C184.212 129.065 184.404 128.42 184.491 127.906C184.535 127.649 184.56 127.38 184.536 127.121C184.514 126.868 184.436 126.529 184.182 126.239C183.904 125.922 183.541 125.803 183.224 125.786C182.936 125.77 182.665 125.836 182.448 125.908C182.014 126.053 181.512 126.325 180.983 126.644L182.017 128.356ZM182.039 129.225C181.022 132.774 180.487 135.633 180.619 138.534C180.752 141.44 181.55 144.309 183.08 147.893L184.92 147.107C183.441 143.645 182.735 141.022 182.617 138.443C182.5 135.859 182.969 133.241 183.961 129.775L182.039 129.225ZM183.04 147.779C186.404 159.348 187.894 165.678 189.511 176.646L191.489 176.354C189.856 165.277 188.344 158.856 184.96 147.221L183.04 147.779ZM189.521 176.706C193.804 197.073 195.368 208.173 197.004 227.584L198.996 227.416C197.354 207.925 195.778 196.744 191.479 176.294L189.521 176.706ZM418.507 236L198.007 234.5L197.993 236.5L418.493 238L418.507 236ZM199 235.5V227.5H197V235.5H199ZM436 95H427V97H436V95Z" fill="black"/>
<path d="M198 242C198 244.5 206.374 286.142 214.5 318L231.737 395.568C233.331 402.738 239.882 407.7 247.215 407.291L358.42 401.09C364.762 400.736 370.194 396.426 371.979 390.331L392 322C397.649 308.657 400.407 300.275 404.5 283.5C407.973 269.571 414.716 253.093 416.841 246.297C417.411 244.475 417.773 242.561 417.942 240.66C418.53 234.057 418.674 218.89 419.5 216C420.48 212.57 426.571 187.118 427.923 164.862C427.978 163.954 427.942 163.044 427.818 162.143C426.596 153.312 425.035 147.417 421.725 140.091C419.819 135.873 414.788 133.856 412.419 129.879C412.127 129.389 411.861 128.836 411.609 128.213C411.157 127.094 410.959 125.891 410.879 124.688L410.086 112.796C410.029 111.934 409.9 111.074 409.68 110.238C407.467 101.828 404.477 97.2402 397.015 91.5007C395.698 90.4882 394.176 89.749 392.586 89.2681C356.674 78.403 340.731 74.7409 325.033 74.922C315.292 83.6454 308.833 84.4124 298.304 77.2752C295.769 75.5569 292.857 74.4046 289.797 74.2891C268.771 73.4953 256.807 75.2522 238.5 82C222.428 87.6883 215.082 94.553 206.822 112.545C205.934 114.479 205.498 116.603 205.629 118.728C206.011 124.905 206.852 129.749 203 132.5C198.5 135.714 192 155.5 192 157.5C192 159.5 194.061 171.032 195.5 180C197.397 204.214 198 239.5 198 242Z" fill="#FFCCAA"/>
<path d="M325.5 74.5C325.343 74.6427 325.188 74.7834 325.033 74.922M325.033 74.922C315.292 83.6454 308.833 84.4124 298.304 77.2752C295.769 75.5569 292.857 74.4046 289.797 74.2891C268.771 73.4953 256.807 75.2522 238.5 82C222.428 87.6883 215.082 94.553 206.822 112.545C205.934 114.479 205.498 116.603 205.629 118.728C206.011 124.905 206.852 129.749 203 132.5C198.5 135.714 192 155.5 192 157.5C192 159.5 194.061 171.032 195.5 180C197.397 204.214 198 239.5 198 242C198 244.5 206.374 286.142 214.5 318L231.737 395.568C233.331 402.738 239.882 407.7 247.215 407.291L358.42 401.09C364.762 400.736 370.194 396.426 371.979 390.331L392 322C397.649 308.657 400.407 300.275 404.5 283.5C407.973 269.571 414.716 253.093 416.841 246.297C417.411 244.475 417.773 242.561 417.942 240.66C418.53 234.057 418.674 218.89 419.5 216C420.48 212.57 426.571 187.118 427.923 164.862C427.978 163.954 427.942 163.044 427.818 162.143C426.596 153.312 425.035 147.417 421.725 140.091C419.819 135.873 414.788 133.856 412.419 129.879C412.127 129.389 411.861 128.836 411.609 128.213C411.157 127.094 410.959 125.891 410.879 124.688L410.086 112.796C410.029 111.934 409.9 111.074 409.68 110.238C407.467 101.828 404.477 97.2402 397.015 91.5007C395.698 90.4882 394.176 89.749 392.586 89.2681C356.674 78.403 340.731 74.7409 325.033 74.922Z" stroke="black" stroke-width="2"/>
<path d="M214.5 317C212.9 331.8 214 337 210.5 345.5L156.5 377L185.5 469L280 491.5L392.5 474.5L440.5 406.5L446.5 380.5C446.5 380.5 392.5 364 391.5 352.5C390.5 341 392.5 320 392.5 320C369 369 349.5 385 336 398.5C319.2 399.7 290.333 399 278 398.5C249.6 387.7 221.5 348.5 214.5 317Z" fill="#F5C4A0" stroke="black" stroke-width="2"/>
<path d="M32.1373 407.927L2.68902 442.6C1.92142 443.504 1.5 444.651 1.5 445.837V493C1.5 495.761 3.73857 498 6.5 498H594C596.761 498 599 495.761 599 493V457.169C599 455.785 598.427 454.463 597.417 453.518L560 418.5C545.5 403.5 533 407 518.5 402.5C507.574 399.109 492.667 389 485.5 386.5L441.5 372C427.333 366.667 398.7 355.8 397.5 355C396.3 354.2 392 353 391 353C390 353 389.5 360 391 362C393.83 365.774 430 373.5 431 377C431.706 379.47 431.426 381.604 431.121 382.644C431.05 382.885 430.936 383.109 430.809 383.325L412.5 414.5C406 424.667 387.7 448.3 366.5 461.5C345.471 474.593 302.042 478.274 282.473 478.495C282.149 478.499 281.853 478.473 281.535 478.412C259.991 474.302 213.473 460.636 196 438C174 409.5 171.5 376 172.5 374C173.239 372.521 194.533 362.957 207.494 357.306C209.322 356.509 210.5 354.709 210.5 352.715V350C210.5 347.239 208.268 344.87 205.522 344.582C201.201 344.13 195.704 343.848 188 347C178.092 351.053 171.543 357.816 168.468 361.006C167.836 361.662 167.026 362.116 166.143 362.34C129.683 371.592 104.738 387.415 83.5 395C76.5 397.5 56.5 397.6 48.5 400C41.0337 402.24 35.3094 405.525 32.953 407.173C32.6479 407.386 32.3783 407.643 32.1373 407.927Z" fill="#483737" stroke="black" stroke-width="2"/>
<path d="M204.681 200.157C204.394 201.3 204.216 202.348 204.126 203.271C203.836 206.235 206.27 206.512 208.78 204.911C222.687 196.036 240.285 191.779 267.89 191.513C269.937 191.493 271.991 191.096 273.775 190.093C278.744 187.3 279.652 184.819 276.948 180.937C275.518 178.883 273.24 177.587 270.788 177.083C243.244 171.417 211.655 189.354 205.613 197.986C205.156 198.639 204.875 199.383 204.681 200.157Z" fill="#693B1B" stroke="black"/>
<path d="M406.763 201.16C407.05 202.303 407.228 203.351 407.318 204.274C407.607 207.238 405.174 207.515 402.663 205.914C388.757 197.039 371.158 192.782 343.554 192.516C341.507 192.496 339.453 192.099 337.668 191.096C332.7 188.303 331.791 185.822 334.495 181.94C335.926 179.886 338.204 178.59 340.655 178.086C368.2 172.42 399.789 190.357 405.83 198.988C406.288 199.642 406.568 200.386 406.763 201.16Z" fill="#693B1B" stroke="black"/>
<path d="M267 197C264.635 196.527 231.841 197.396 225.345 204.688C224.857 205.235 225.35 205.96 226.082 205.927C251.703 204.768 264.505 205.835 277.23 213.405C277.951 213.834 278.853 213.267 278.688 212.445C276.812 203.111 269.333 197.467 267 197Z" fill="#E8BA95"/>
<path d="M311.807 301.885C313.792 304.189 314.585 306.249 314.927 310.067C314.974 310.591 315.409 311 315.935 311H323.822C323.94 311 324.058 310.979 324.168 310.938C332.966 307.702 338.715 305.113 349.934 299.294C350.277 299.116 350.491 298.749 350.476 298.363C349.852 282.281 348.352 273.003 344.021 256.579C344.007 256.527 343.989 256.474 343.967 256.425C335.919 238.351 330.626 227.74 330.502 218.819C330.499 218.611 330.566 218.407 330.688 218.238C335.795 211.136 340.492 206.82 349.166 200.424C350.01 199.802 349.456 198.46 348.42 198.626C325.202 202.333 315.983 206.589 311.628 218.154C311.545 218.375 311.546 218.625 311.626 218.846C317.25 234.309 317.936 244.053 318.995 265.392C318.998 265.463 319.009 265.536 319.028 265.604C322.443 278.398 324.359 286.039 324.033 296.146C324.017 296.638 323.638 297.041 323.15 297.101C317.564 297.786 314.88 298.623 312.011 300.358C311.478 300.681 311.4 301.413 311.807 301.885Z" fill="#E8BA95"/>
<path d="M340.195 337.548C330.653 345.141 323.709 349.185 312.038 353.773C311.026 354.171 311.274 355.631 312.361 355.63C336.386 355.603 341.946 344.993 341.685 338.156C341.657 337.401 340.786 337.077 340.195 337.548Z" fill="#E8BA95"/>
<path d="M425.5 378.5C405.936 420.792 389.552 438.872 353 463.5C337.167 444.126 330.577 424.778 323 401L336.5 400C361.5 379 368.5 365.5 388 332V362.5C401.168 370.614 409.548 373.903 425.5 378.5Z" fill="#E8BA95"/>
<path d="M316 370.5C312.805 380.669 312.96 386.218 316 397.5C326.703 397.125 331.351 397.309 336.5 396.5C363.521 367.766 392 327.5 397.5 304.5C404.5 284 415.065 242.841 423 199C428.416 171.785 426.684 158.21 416.5 136.5C408.814 129.595 407.094 125.48 405.5 118C406.716 103.851 402.859 97.9491 388 91L340.5 77.5C330.799 75.7206 330.13 78.7267 333 87.5C342.8 91.632 347.55 95.6924 354.5 106.5C364.549 137.087 372.397 150.263 391 165.5C408.417 180.897 412.742 191.421 409.5 214L396.5 268C379.327 324.503 361.973 347.259 316 370.5Z" fill="#E8BA95"/>
<path d="M264 60.5C229.9 63.5385 215.722 74.2552 199 109C203.687 87.478 210.5 61 222.5 54.5C234.5 48 248.57 50.7296 264 60.5Z" fill="#7D4723"/>
<path d="M314.5 13.5C295.5 20.5 289.139 52.4294 312 71.5C336.556 65.9624 354.926 69.6422 394 85.5C412.055 92.983 419.541 110.253 432.5 143C430.645 111.355 426.194 93.6201 412.5 62C391.676 26.6057 335 11.5 314.5 13.5Z" fill="#73411F"/>
<path d="M212.564 256.5C213.996 256.893 214.828 256.849 216.564 254.5C215.79 253.203 214.957 252.638 212.564 252C211.855 252.229 211.771 253.034 212.564 256.5Z" fill="#4D301C"/>
<path d="M380 276C380.009 277.148 380.446 277.54 382.5 277.5C383.617 276.919 383.923 276.473 384 275.5C383.666 274.868 383.411 274.578 382.5 274.5C381.418 274.506 380.863 274.795 380 276Z" fill="#4D301C"/>
</svg>
